<svg width="77" height="75" viewBox="0 0 77 75" fill="none" xmlns="http://www.w3.org/2000/svg">
                        <path d="M70.8167 6.60222C68.9417 4.50913 66.7156 2.84873 64.2654 1.7159C61.8152 0.583071 59.189 0 56.5368 0C53.8846 0 51.2584 0.583071 48.8082 1.7159C46.3581 2.84873 44.1319 4.50913 42.257 6.60222L38.3658 10.9441L34.4746 6.60222C30.6874 2.37629 25.5508 0.00219045 20.1948 0.00219049C14.8388 0.00219054 9.70216 2.37629 5.91491 6.60222C2.12766 10.8282 3.99052e-08 16.5597 0 22.5361C-3.99052e-08 28.5125 2.12766 34.2441 5.91491 38.47L9.80608 42.8119L38.3658 74.6796L66.9255 42.8119L70.8167 38.47C72.6925 36.3779 74.1805 33.8939 75.1958 31.1599C76.211 28.4259 76.7335 25.4955 76.7335 22.5361C76.7335 19.5767 76.211 16.6463 75.1958 13.9123C74.1805 11.1783 72.6925 8.69434 70.8167 6.60222Z" fill="#ddeeff"></path>
                    </svg>