<svg width="49" height="47" viewBox="0 0 49 47" fill="none" xmlns="http://www.w3.org/2000/svg">
<path d="M44.1264 4.87164C42.9818 3.61078 41.6228 2.61058 40.127 1.92817C38.6312 1.24577 37.028 0.894531 35.4089 0.894531C33.7898 0.894531 32.1866 1.24577 30.6908 1.92817C29.195 2.61058 27.836 3.61078 26.6914 4.87164L24.3159 7.48714L21.9405 4.87164C19.6285 2.32598 16.4927 0.895851 13.223 0.895851C9.9533 0.895851 6.81752 2.32598 4.5055 4.87164C2.19347 7.41729 0.894592 10.8699 0.894592 14.47C0.894592 18.0701 2.19347 21.5228 4.5055 24.0684L6.88096 26.6839L24.3159 45.8807L41.7509 26.6839L44.1264 24.0684C45.2715 22.8082 46.1799 21.3118 46.7997 19.6649C47.4195 18.018 47.7385 16.2527 47.7385 14.47C47.7385 12.6873 47.4195 10.9221 46.7997 9.27516C46.1799 7.62824 45.2715 6.1319 44.1264 4.87164Z" stroke="#60695E" stroke-width="1.78921" stroke-linecap="round" stroke-linejoin="round"/>
</svg>
