<svg width="22" height="21" viewBox="0 0 22 21" fill="none" xmlns="http://www.w3.org/2000/svg">
<path d="M19.7966 1.84563C19.2725 1.26051 18.6502 0.796355 17.9652 0.479676C17.2803 0.162996 16.5461 0 15.8047 0C15.0633 0 14.3292 0.162996 13.6442 0.479676C12.9593 0.796355 12.337 1.26051 11.8128 1.84563L10.7251 3.05939L9.63729 1.84563C8.57857 0.664286 7.14264 0.000612333 5.64539 0.000612346C4.14814 0.000612358 2.71221 0.664286 1.6535 1.84563C0.594781 3.02698 1.11554e-08 4.62923 0 6.29991C-1.11554e-08 7.97059 0.594781 9.57284 1.6535 10.7542L2.74126 11.9679L10.7251 20.8765L18.7088 11.9679L19.7966 10.7542C20.321 10.1693 20.737 9.47494 21.0208 8.71066C21.3046 7.94638 21.4507 7.1272 21.4507 6.29991C21.4507 5.47262 21.3046 4.65343 21.0208 3.88915C20.737 3.12488 20.321 2.43048 19.7966 1.84563Z" fill="black"/>
</svg>
