<svg width="125" height="111" viewBox="0 0 125 111" fill="none" xmlns="http://www.w3.org/2000/svg">
<path d="M114.523 9.7622C111.491 6.6673 107.891 4.2122 103.928 2.53717C99.966 0.862142 95.719 0 91.4299 0C87.1409 0 82.8938 0.862142 78.9315 2.53717C74.9691 4.2122 71.369 6.6673 68.3369 9.7622L62.0442 16.1822L55.7515 9.7622C49.6268 3.51364 41.32 0.00323884 32.6585 0.00323891C23.9969 0.00323898 15.6901 3.51364 9.56544 9.7622C3.44079 16.0108 6.45337e-08 24.4856 0 33.3224C-6.45337e-08 42.1592 3.44079 50.6341 9.56544 56.8826L15.8581 63.3026L62.0442 110.423L108.23 63.3026L114.523 56.8826C117.556 53.7892 119.963 50.1163 121.605 46.0737C123.247 42.0312 124.092 37.6982 124.092 33.3224C124.092 28.9466 123.247 24.6136 121.605 20.5711C119.963 16.5286 117.556 12.8556 114.523 9.7622Z" fill="#D6C4AE"/>
</svg>
